<svg xmlns="http://www.w3.org/2000/svg" width="512" height="150" viewBox="50 128 450 200" style="" data-svgdocument="" id="_BM0fv_aJ_ZZWWYek1ZRVa" class="fl-svgdocument" x="0" y="0" overflow="hidden" data-bbox="27.94 155.429 456.12 173.233">
  <g id="_CZsm_wCQ7c3IgxeylXQiM" transform="matrix(0.8125, 0, 0, 0.8125, 0.7728169560432434, 41.12238693237305)">
    <path id="_nYrdhAiyt-4ci4TBfdLLz" d="M47.69 90.25c-0.069 0-0.14-0.006-0.21-0.02l-34.722-6.439c-0.624-0.115-1.036-0.715-0.921-1.34   c0.116-0.623 0.717-1.037 1.34-0.92l33.245 6.164l-1.82-22.307l-18.92-53.09c-0.214-0.598 0.099-1.256 0.697-1.469   c0.598-0.213 1.255 0.099 1.469 0.697L46.819 64.76c0.033 0.094 0.055 0.191 0.062 0.293l1.955 23.953   c0.028 0.357-0.11 0.707-0.376 0.947C48.248 90.145 47.973 90.25 47.69 90.25z" fill="#ffab4a" transform="matrix(2.3875880241394043, 0, 0, 2.3875880241394043, 24.424518585205078, 128.12120056152344)" />
    <path id="_7-TNYczNWwjvDZVmHMsj0" d="M47.689 90.25c-0.183 0-0.367-0.043-0.54-0.135c-0.561-0.301-0.772-0.996-0.474-1.557l33.803-63.391   c0.299-0.56 0.995-0.772 1.556-0.474c0.56 0.299 0.771 0.996 0.474 1.556L48.705 89.641C48.498 90.029 48.101 90.25 47.689 90.25z" fill="#ff6b4a" transform="matrix(2.3875880241394043, 0, 0, 2.3875880241394043, 23.89333724975586, 128.6082305908203)" />
    <path id="_HmtDiMQRhI5IEVQ9RVaWU" d="M45.737 66.295c-0.077 0-0.155-0.008-0.233-0.023l0 0c-0.001 0-0.002 0-0.002 0c-0.017-0.004-0.032-0.008-0.047-0.012l0 0   c-0.003 0-0.004 0-0.006-0.002l0 0c-0.213-0.055-0.396-0.164-0.539-0.312L10.716 31.75L6.281 55.965   c-0.114 0.625-0.714 1.037-1.338 0.924c-0.625-0.115-1.038-0.715-0.924-1.338l4.829-26.37c0.076-0.42 0.381-0.763 0.788-0.891   c0.408-0.127 0.854-0.018 1.155 0.285l34.292 34.292l9.896-42.656l-28.495-7.184c-0.526-0.132-0.888-0.614-0.868-1.156   s0.416-0.997 0.949-1.091l32.653-5.749c0.38-0.067 0.769 0.062 1.033 0.341c0.266 0.28 0.373 0.675 0.286 1.051l-2.81 12.109   l24.046 6.062c0.391 0.099 0.702 0.396 0.819 0.782c0.116 0.386 0.022 0.806-0.249 1.105L46.603 65.9   c-0.065 0.076-0.141 0.143-0.224 0.197c0 0.002-0.001 0.002-0.001 0.002c-0.001 0-0.001 0-0.002 0l-0.001 0.002   c-0.001 0-0.001 0-0.001 0c-0.017 0.012-0.032 0.021-0.049 0.031c-0.001 0-0.001 0-0.001 0c-0.001 0-0.001 0-0.002 0.002h-0.001   c-0.001 0-0.001 0-0.001 0C46.146 66.238 45.945 66.295 45.737 66.295z M57.209 20.773l-9.354 40.323l31.499-34.74L57.209 20.773z    M32.262 12.112l23.237 5.858l2.406-10.373L32.262 12.112z" fill="#ff4a4a" transform="matrix(2.3875880241394043, 0, 0, 2.3875880241394043, 23.886180877685547, 128.81785583496094)" />
    <path id="_-g4FECiGjDeGPmN7mAvTs" d="M12.968 83.811c-0.145 0-0.287-0.027-0.419-0.078c-0.101-0.041-0.197-0.094-0.285-0.162   c-0.15-0.117-0.273-0.273-0.353-0.457c-0.02-0.047-0.037-0.096-0.05-0.143L4.046 56.078c-0.136-0.471 0.039-0.975 0.438-1.258   l51.203-36.386c0.455-0.323 1.075-0.273 1.473 0.117s0.457 1.01 0.143 1.47L16.579 79.428l28.615-15.297   c0.166-0.088 0.353-0.135 0.542-0.135h46.606L80.492 26.358L58.655 7.024c-0.475-0.421-0.52-1.147-0.098-1.623   c0.42-0.475 1.147-0.52 1.622-0.099l22.075 19.545c0.156 0.139 0.272 0.317 0.335 0.516l12.417 39.437   c0.109 0.348 0.047 0.729-0.17 1.023c-0.217 0.297-0.561 0.471-0.927 0.471H46.024L13.532 83.664   c-0.051 0.027-0.104 0.053-0.159 0.074c-0.069 0.025-0.141 0.045-0.212 0.057C13.097 83.807 13.032 83.811 12.968 83.811z    M6.482 56.221l6.912 23.785l38.356-55.953L6.482 56.221z" fill="#ff954a" transform="matrix(2.3875880241394043, 0, 0, 2.3875880241394043, 23.98843765258789, 128.7154083251953)" />
    <path id="_lH_QpX3A2RgCO2VtGtMus" fill="#ff4a4a" transform="matrix(2.3875880241394043, 0, 0, 2.3875880241394043, 24.87227439880371, 128.0879364013672)" data-type="circle" data-cx="55.538" data-cy="19.677" data-r="4.901" d="M55.538,19.677m-4.901,0a4.901,4.901 0 1, 0 9.802,0a4.901,4.901 0 1, 0 -9.802,0" />
    <path id="_zwePDHih4GevDIq5w3Req" fill="#ff6b4a" transform="matrix(2.3875880241394043, 0, 0, 2.3875880241394043, 25.028173446655273, 128.2785186767578)" data-type="circle" data-cx="23.472" data-cy="42.596" data-r="4.9" d="M23.472,42.596m-4.9,0a4.9,4.9 0 1, 0 9.8,0a4.9,4.9 0 1, 0 -9.8,0" />
    <path id="__bp6clTczT-DT51RP1Js7" fill="#ff954a" transform="matrix(2.3875880241394043, 0, 0, 2.3875880241394043, 24.40011978149414, 129.35693359375)" data-type="circle" data-cx="45.736" data-cy="65.145" data-r="4.901" d="M45.736,65.145m-4.901,0a4.901,4.901 0 1, 0 9.802,0a4.901,4.901 0 1, 0 -9.802,0" />
    <path id="_4I73MY35XrjAje_94NhqE" fill="#ffab4a" transform="matrix(2.3875880241394043, 0, 0, 2.3875880241394043, 23.846981048583984, 128.12213134765625)" data-type="circle" data-cx="12.968" data-cy="82.662" data-r="4.901" d="M12.968,82.662m-4.901,0a4.901,4.901 0 1, 0 9.802,0a4.901,4.901 0 1, 0 -9.802,0" />
    <path id="_Em4M5ckx9HQ3l5_UxbT-2" fill="#ffab4a" transform="matrix(2.3875880241394043, 0, 0, 2.3875880241394043, 24.331098556518555, 128.38638305664062)" data-type="circle" data-cx="81.493" data-cy="25.552" data-r="4.901" d="M81.493,25.552m-4.901,0a4.901,4.901 0 1, 0 9.802,0a4.901,4.901 0 1, 0 -9.802,0" />
    <path id="_MuuO6Z994e7NcdK4w4UM3" fill="#ff6b4a" transform="matrix(2.3875880241394043, 0, 0, 2.3875880241394043, 24.50743865966797, 129.4617462158203)" data-type="circle" data-cx="47.69" data-cy="89.1" data-r="4.9" d="M47.69,89.1m-4.9,0a4.9,4.9 0 1, 0 9.8,0a4.9,4.9 0 1, 0 -9.8,0" />
  </g>
  <path id="_Z0YrQ9icz1cHOvm_GQPbH" fill="#FFFFFF" transform="matrix(0.5238857865333557, 0, 0, 0.5238857865333557, 119.33055877685547, 276.2277526855469)" text="denqfabrik" text-anchor="start" font-size="100" letter-spacing="0" side="left" offset="0" dx="0" dy="0" space="preserve" href="" font-family="Bungee" font-scale="contain" x="0" y="0" data-fl-textpath="" d="M 44.2 0L 44.2 0L 10.5 0Q 8.6 0  7.75-0.85Q 6.9-1.7  6.9-3.6L 6.9-3.6L 6.9-68.4Q 6.9-70.3  7.75-71.15Q 8.6-72  10.5-72L 10.5-72L 44.2-72Q 56.7-72  62.75-67Q 68.8-62  68.8-51.6L 68.8-51.6L 68.8-20.4Q 68.8-10  62.75-5Q 56.7 0  44.2 0ZM 41.5-52.9L 29.6-52.9L 29.6-18.9L 41.5-18.9Q 43.9-18.9  45.05-20.1Q 46.2-21.3  46.2-23.8L 46.2-23.8L 46.2-48.1Q 46.2-50.6  45.05-51.75Q 43.9-52.9  41.5-52.9L 41.5-52.9ZM 131.5 0L 131.5 0L 85.1 0Q 83.2 0  82.35-0.85Q 81.5-1.7  81.5-3.6L 81.5-3.6L 81.5-68.4Q 81.5-70.3  82.35-71.15Q 83.2-72  85.1-72L 85.1-72L 131.5-72Q 133.4-72  134.25-71.15Q 135.1-70.3  135.1-68.4L 135.1-68.4L 135.1-56.7Q 135.1-54.8  134.25-53.95Q 133.4-53.1  131.5-53.1L 131.5-53.1L 103.9-53.1L 103.9-45.4L 123.4-45.4Q 125.3-45.4  126.15-44.55Q 127-43.7  127-41.8L 127-41.8L 127-31.1Q 127-29.2  126.15-28.35Q 125.3-27.5  123.4-27.5L 123.4-27.5L 103.9-27.5L 103.9-18.9L 131.5-18.9Q 133.4-18.9  134.25-18.05Q 135.1-17.2  135.1-15.3L 135.1-15.3L 135.1-3.6Q 135.1-1.7  134.25-0.85Q 133.4 0  131.5 0ZM 165.5 0L 165.5 0L 150.5 0Q 148.6 0  147.75-0.85Q 146.9-1.7  146.9-3.6L 146.9-3.6L 146.9-68.4Q 146.9-70.3  147.75-71.15Q 148.6-72  150.5-72L 150.5-72L 160.9-72Q 162.8-72  164.15-71.4Q 165.5-70.8  166.8-69.3L 166.8-69.3L 186.2-47.1L 186.2-68.4Q 186.2-70.3  187.05-71.15Q 187.9-72  189.8-72L 189.8-72L 204.8-72Q 206.7-72  207.55-71.15Q 208.4-70.3  208.4-68.4L 208.4-68.4L 208.4-3.6Q 208.4-1.7  207.55-0.85Q 206.7 0  204.8 0L 204.8 0L 189.8 0Q 187.9 0  187.05-0.85Q 186.2-1.7  186.2-3.6L 186.2-3.6L 186.2-15.9L 169.1-36.6L 169.1-3.6Q 169.1-1.7  168.25-0.85Q 167.4 0  165.5 0ZM 259.8 9L 259.8 9L 244.4 9Q 242.5 9  241.65 8.15Q 240.8 7.3  240.8 5.4L 240.8 5.4L 240.8-0.1Q 229.2-1.8  225.15-7.05Q 221.1-12.3  221.1-19.8L 221.1-19.8L 221.1-53Q 221.1-57.6  222.45-61.35Q 223.8-65.1  227.25-67.8Q 230.7-70.5  236.8-72Q 242.9-73.5  252.2-73.5L 252.2-73.5Q 261.5-73.5  267.55-72Q 273.6-70.5  277.05-67.8Q 280.5-65.1  281.85-61.35Q 283.2-57.6  283.2-53L 283.2-53L 283.2-19.8Q 283.2-16  282.3-12.75Q 281.4-9.5  279.2-7Q 277-4.5  273.15-2.7Q 269.3-0.9  263.4-0.1L 263.4-0.1L 263.4 5.4Q 263.4 7.3  262.55 8.15Q 261.7 9  259.8 9ZM 243.8-49.3L 243.8-22Q 243.8-20  245.3-18.65Q 246.8-17.3  252.2-17.3L 252.2-17.3Q 257.6-17.3  259.1-18.65Q 260.6-20  260.6-22L 260.6-22L 260.6-49.3Q 260.6-51.2  259.1-52.55Q 257.6-53.9  252.2-53.9L 252.2-53.9Q 246.8-53.9  245.3-52.55Q 243.8-51.2  243.8-49.3L 243.8-49.3ZM 315 0L 315 0L 299.5 0Q 297.6 0  296.75-0.85Q 295.9-1.7  295.9-3.6L 295.9-3.6L 295.9-68.4Q 295.9-70.3  296.75-71.15Q 297.6-72  299.5-72L 299.5-72L 344.1-72Q 346-72  346.85-71.15Q 347.7-70.3  347.7-68.4L 347.7-68.4L 347.7-56.5Q 347.7-54.6  346.85-53.75Q 346-52.9  344.1-52.9L 344.1-52.9L 318.6-52.9L 318.6-42.5L 336-42.5Q 337.9-42.5  338.75-41.65Q 339.6-40.8  339.6-38.9L 339.6-38.9L 339.6-26.9Q 339.6-25  338.75-24.15Q 337.9-23.3  336-23.3L 336-23.3L 318.6-23.3L 318.6-3.6Q 318.6-1.7  317.75-0.85Q 316.9 0  315 0ZM 380.3-51L 380.3-51L 375.6-35.8L 391.3-35.8L 386.6-51Q 386.2-51.9  385.75-52.3Q 385.3-52.7  384.7-52.7L 384.7-52.7L 382.2-52.7Q 381.6-52.7  381.15-52.3Q 380.7-51.9  380.3-51ZM 374.6-17.6L 374.6-3.6Q 374.6-1.7  373.75-0.85Q 372.9 0  371 0L 371 0L 356.3 0Q 354.4 0  353.55-0.85Q 352.7-1.7  352.7-3.6L 352.7-3.6L 352.7-30Q 352.7-33  353.65-36.9Q 354.6-40.8  356.6-46L 356.6-46L 365.3-68.7Q 365.9-70.4  367.15-71.2Q 368.4-72  370.4-72L 370.4-72L 397.3-72Q 399.2-72  400.45-71.2Q 401.7-70.4  402.3-68.7L 402.3-68.7L 411-46Q 413-40.8  413.95-36.9Q 414.9-33  414.9-30L 414.9-30L 414.9-3.6Q 414.9-1.7  414.05-0.85Q 413.2 0  411.3 0L 411.3 0L 396.2 0Q 394.2 0  393.25-0.85Q 392.3-1.7  392.3-3.6L 392.3-3.6L 392.3-17.6L 374.6-17.6ZM 469.2 0L 469.2 0L 430.8 0Q 428.9 0  428.05-0.85Q 427.2-1.7  427.2-3.6L 427.2-3.6L 427.2-68.4Q 427.2-70.3  428.05-71.15Q 428.9-72  430.8-72L 430.8-72L 462.7-72Q 472.5-72  477.2-68.25Q 481.9-64.5  481.9-56.7L 481.9-56.7L 481.9-51.9Q 481.9-47.7  480.45-45.05Q 479-42.4  476-41.1L 476-41.1Q 482.4-40.5  485.5-36.7Q 488.6-32.9  488.6-25.6L 488.6-25.6L 488.6-16.4Q 488.6-8  483.85-4Q 479.1 0  469.2 0ZM 458.2-55L 449.7-55L 449.7-44.2L 458.2-44.2Q 460.1-44.2  461.05-45.2Q 462-46.2  462-48.2L 462-48.2L 462-51Q 462-53  461.05-54Q 460.1-55  458.2-55L 458.2-55ZM 462.7-28.8L 449.7-28.8L 449.7-17L 462.7-17Q 464.6-17  465.55-18Q 466.5-19  466.5-21L 466.5-21L 466.5-24.9Q 466.5-26.9  465.55-27.85Q 464.6-28.8  462.7-28.8L 462.7-28.8ZM 529.8-54L 522.3-54L 522.3-41.2L 529.8-41.2Q 532.4-41.2  533.3-42.55Q 534.2-43.9  534.2-45.9L 534.2-45.9L 534.2-49.3Q 534.2-51.3  533.3-52.65Q 532.4-54  529.8-54L 529.8-54ZM 518.7 0L 518.7 0L 503.3 0Q 501.4 0  500.55-0.85Q 499.7-1.7  499.7-3.6L 499.7-3.6L 499.7-68.4Q 499.7-70.3  500.55-71.15Q 501.4-72  503.3-72L 503.3-72L 536.6-72Q 547.8-72  552.05-67.35Q 556.3-62.7  556.3-55.3L 556.3-55.3L 556.3-50.7Q 556.3-46.5  555.05-43.55Q 553.8-40.6  550.7-39.3L 550.7-39.3Q 556.1-38.7  559.45-34.9Q 562.8-31.1  562.8-24.8L 562.8-24.8L 562.8-3.6Q 562.8-1.7  561.95-0.85Q 561.1 0  559.2 0L 559.2 0L 543.7 0Q 541.8 0  540.95-0.85Q 540.1-1.7  540.1-3.6L 540.1-3.6L 540.1-18.9Q 540.1-21.1  539.25-22.15Q 538.4-23.2  536.3-23.2L 536.3-23.2L 522.3-23.2L 522.3-3.6Q 522.3-1.7  521.45-0.85Q 520.6 0  518.7 0ZM 618.6 0L 576 0Q 574.1 0  573.25-0.85Q 572.4-1.7  572.4-3.6L 572.4-3.6L 572.4-15.5Q 572.4-17.4  573.25-18.25Q 574.1-19.1  576-19.1L 576-19.1L 585.9-19.1L 585.9-52.7L 576-52.7Q 574.1-52.7  573.25-53.55Q 572.4-54.4  572.4-56.3L 572.4-56.3L 572.4-68.4Q 572.4-70.3  573.25-71.15Q 574.1-72  576-72L 576-72L 618.6-72Q 620.5-72  621.35-71.15Q 622.2-70.3  622.2-68.4L 622.2-68.4L 622.2-56.3Q 622.2-54.4  621.35-53.55Q 620.5-52.7  618.6-52.7L 618.6-52.7L 608.9-52.7L 608.9-19.1L 618.6-19.1Q 620.5-19.1  621.35-18.25Q 622.2-17.4  622.2-15.5L 622.2-15.5L 622.2-3.6Q 622.2-1.7  621.35-0.85Q 620.5 0  618.6 0L 618.6 0ZM 653.6 0L 653.6 0L 638.1 0Q 636.2 0  635.35-0.85Q 634.5-1.7  634.5-3.6L 634.5-3.6L 634.5-68.4Q 634.5-70.3  635.35-71.15Q 636.2-72  638.1-72L 638.1-72L 653.6-72Q 655.5-72  656.35-71.15Q 657.2-70.3  657.2-68.4L 657.2-68.4L 657.2-45.4L 661.2-45.4L 671.5-68.7Q 672.2-70.5  673.4-71.25Q 674.6-72  676.5-72L 676.5-72L 691.9-72Q 693.6-72  694.2-71.15Q 694.8-70.3  694.1-68.7L 694.1-68.7L 683.9-45.4Q 689.5-45.1  692.85-41.45Q 696.2-37.8  696.2-31.8L 696.2-31.8L 696.2-3.6Q 696.2-1.7  695.35-0.85Q 694.5 0  692.6 0L 692.6 0L 677.2 0Q 675.3 0  674.45-0.85Q 673.6-1.7  673.6-3.6L 673.6-3.6L 673.6-23.1Q 673.6-24.7  672.8-25.6Q 672-26.5  670.4-26.5L 670.4-26.5L 657.2-26.5L 657.2-3.6Q 657.2-1.7  656.35-0.85Q 655.5 0  653.6 0Z" />
</svg>